<svg id="i_bluePrint" width="30" height="30" viewBox="0 0 30 30" fill="none" xmlns="http://www.w3.org/2000/svg">
	<path d="M26.7785 20.1805C25.3107 21.3717 23.6946 22.359 21.942 23.0545L25.1284 28.5734L28.2896 29.9234C28.8644 30.1689 29.5137 29.7939 29.5887 29.1734L30 25.7603L26.7785 20.1805ZM29.2682 14.64C29.5529 14.1906 29.3789 13.5859 28.9137 13.3281L27.2689 12.4158C26.8306 12.1727 26.2956 12.3303 26.0232 12.751C23.6143 16.4734 19.4682 18.7497 15.0003 18.7497C13.5981 18.7497 12.2329 18.5007 10.9332 18.0741L14.8802 11.2375C14.9212 11.2387 14.9587 11.2498 14.9997 11.2498C15.0407 11.2498 15.0788 11.2387 15.1192 11.2375L18.1129 16.423C19.9428 15.898 21.6028 14.9142 22.9534 13.5566L19.9187 8.30026C20.3553 7.50164 20.6254 6.59931 20.6254 5.62491C20.6254 2.51832 18.107 0 15.0003 0C11.8936 0 9.37518 2.51832 9.37518 5.62491C9.37518 6.59931 9.64531 7.50164 10.0813 8.30026L6.07922 15.2324C5.34385 14.5521 4.67529 13.7916 4.10574 12.9473C3.82507 12.5313 3.28717 12.3836 2.85299 12.635L1.22698 13.5765C0.767007 13.8426 0.604113 14.4496 0.896502 14.8931C1.80882 16.2783 2.92916 17.4835 4.17664 18.5271L0 25.7609L0.411336 29.174C0.486338 29.7945 1.13557 30.1695 1.71039 29.924L4.87158 28.574L9.0201 21.3887C10.9063 22.1059 12.9272 22.4997 15.0003 22.4997C20.8041 22.4997 26.1849 19.5108 29.2682 14.64ZM15.0003 3.74994C16.0357 3.74994 16.8753 4.58958 16.8753 5.62491C16.8753 6.66025 16.0357 7.49988 15.0003 7.49988C13.9649 7.49988 13.1253 6.66025 13.1253 5.62491C13.1253 4.58958 13.9649 3.74994 15.0003 3.74994Z" fill="#D9D9D9"/>
</svg>
