<svg id="i_contractors" width="30" height="25" viewBox="0 0 30 25" fill="none" xmlns="http://www.w3.org/2000/svg">
	<path d="M15.0005 10C16.3264 10 17.598 9.47321 18.5356 8.53553C19.4731 7.59785 19.9999 6.32608 19.9999 5C19.9999 3.67392 19.4731 2.40215 18.5356 1.46447C17.598 0.526784 16.3264 0 15.0005 0C13.6746 0 12.403 0.526784 11.4655 1.46447C10.5279 2.40215 10.0012 3.67392 10.0012 5C10.0012 6.32608 10.5279 7.59785 11.4655 8.53553C12.403 9.47321 13.6746 10 15.0005 10ZM8.33475 8.33333C8.33475 9.21738 7.9836 10.0652 7.35857 10.6904C6.73353 11.3155 5.8858 11.6667 5.00186 11.6667C4.11792 11.6667 3.27019 11.3155 2.64515 10.6904C2.02011 10.0652 1.66897 9.21738 1.66897 8.33333C1.66897 7.44928 2.02011 6.60143 2.64515 5.97631C3.27019 5.35119 4.11792 5 5.00186 5C5.8858 5 6.73353 5.35119 7.35857 5.97631C7.9836 6.60143 8.33475 7.44928 8.33475 8.33333ZM0.819084 20.5433C0.534598 20.3816 0.321558 20.1186 0.222497 19.8067C-0.0711216 18.8555 -0.0742007 17.8384 0.213654 16.8855C0.501508 15.9327 1.06719 15.0874 1.83827 14.458C2.60934 13.8286 3.55071 13.4437 4.54182 13.3526C5.53294 13.2615 6.52868 13.4684 7.40154 13.9467C5.60783 15.7096 4.48515 18.0431 4.22696 20.545C4.18863 20.915 4.20363 21.2817 4.26862 21.635C3.05239 21.5298 1.87443 21.157 0.819084 20.5433ZM25.7324 21.6333C26.9485 21.5287 28.1265 21.1564 29.182 20.5433C29.4658 20.3813 29.6782 20.1183 29.7769 19.8067C30.071 18.8554 30.0744 17.8381 29.7867 16.8849C29.4991 15.9317 28.9334 15.0861 28.1623 14.4564C27.3911 13.8268 26.4495 13.4417 25.4582 13.3506C24.4668 13.2595 23.4708 13.4665 22.5978 13.945C24.3931 15.7079 25.517 18.0421 25.7757 20.545C25.8129 20.9085 25.7983 21.2755 25.7324 21.635V21.6333ZM28.3321 8.33333C28.3321 9.21738 27.9809 10.0652 27.3559 10.6904C26.7309 11.3155 25.8831 11.6667 24.9992 11.6667C24.1152 11.6667 23.2675 11.3155 22.6425 10.6904C22.0174 10.0652 21.6663 9.21738 21.6663 8.33333C21.6663 7.44928 22.0174 6.60143 22.6425 5.97631C23.2675 5.35119 24.1152 5 24.9992 5C25.8831 5 26.7309 5.35119 27.3559 5.97631C27.9809 6.60143 28.3321 7.44928 28.3321 8.33333ZM7.1749 21.9833C7.01055 21.8361 6.88314 21.6523 6.80295 21.4467C6.72276 21.2412 6.69205 21.0196 6.7133 20.8C6.92526 18.7491 7.88988 16.8497 9.4207 15.4687C10.9515 14.0878 12.9398 13.3235 15.0014 13.3235C17.0629 13.3235 19.0512 14.0878 20.582 15.4687C22.1128 16.8497 23.0775 18.7491 23.2894 20.8C23.3108 21.0196 23.2801 21.2412 23.2 21.4468C23.1198 21.6524 22.9923 21.8362 22.8278 21.9833C20.6851 23.9282 17.8941 25.0039 15.0005 25C12.1075 25.0036 9.31709 23.928 7.1749 21.9833Z" fill="#D9D9D9"/>
</svg>
