<svg id="i_notification" width="27" height="30" viewBox="0 0 27 30" fill="none" xmlns="http://www.w3.org/2000/svg">
	<path d="M13.483 30C16.1079 30 17.5428 28.3504 17.5428 26.026H9.41483C9.41483 28.3504 10.8497 30 13.483 30ZM26.6583 22.217C25.3585 20.6949 22.8011 19.8026 22.8011 12.9869C22.8011 5.99116 19.3237 3.17938 16.0826 2.50455C15.7788 2.43707 15.5593 2.34709 15.5593 2.06217V1.84472C15.5593 0.839979 14.6309 -0.0073037 13.4999 0.000194379C12.3689 -0.0148018 11.4405 0.839979 11.4405 1.84472V2.06217C11.4405 2.33959 11.221 2.43707 10.9172 2.50455C7.66769 3.18688 4.19875 5.99116 4.19875 12.9869C4.19875 19.8026 1.64136 20.6874 0.34156 22.217C-0.494025 23.1992 0.299359 24.6014 1.68356 24.6014H25.3247C26.7005 24.6014 27.4938 23.1917 26.6583 22.217Z" fill="#3683FF"/>
</svg>
