<svg id="i_user" width="13" height="18" viewBox="0 0 13 18" fill="none" xmlns="http://www.w3.org/2000/svg">
	<path d="M11.9167 5.29412C11.9167 3.83188 11.31 2.50835 10.3307 1.55118C9.35025 0.592941 7.99608 0 6.5 0C5.00392 0 3.64975 0.592941 2.66933 1.55118C1.69 2.50835 1.08333 3.83188 1.08333 5.29412C1.08333 6.75635 1.69 8.07988 2.66933 9.03706C3.64975 9.99529 5.00392 10.5882 6.5 10.5882C7.99608 10.5882 9.35025 9.99529 10.3307 9.03706C11.31 8.07988 11.9167 6.75635 11.9167 5.29412ZM0 15.8824C0 16.9412 2.4375 18 6.5 18C10.3112 18 13 16.9412 13 15.8824C13 13.7647 10.4498 11.6471 6.5 11.6471C2.4375 11.6471 0 13.7647 0 15.8824Z" fill="white"/>
</svg>
